# xmcd CD database file
#
# Track frame offsets:
#	150
#	15262
#	34255
#	44590
#	55937
#	72267
#	85150
#	95497
#	102875
#	113830
#	124042
#	131262
#	144325
#	154475
#	181765
#	209515
#	216112
#	224512
#	237537
#	247867
#	259345
#	274567
#	285545
#	297332
#
# Disc length: 4083 seconds
#
# Revision: 8
# Processed by: cddbd v1.5.2PL0 Copyright (c) Steve Scherf et al.
# Submitted via: CDex 1.51
#
DISCID=670ff118
DTITLE=Rachmaninoff - Complete Songs Vol.3  (J. Rodgers, M. Popescu, A. Naoumenko, S. Leiferkus)
DYEAR=2008
DGENRE=Classique
TTITLE0=Letter to K. S. Stanislavsky
TTITLE1=Op.34  n°01, The Muse
TTITLE2=Op.34  n°02, In the soul of each of us
TTITLE3=Op.34  n°03, The Storm
TTITLE4=Op.34  n°04, A passing breeze
TTITLE5=Op.34  n°05, Arion
TTITLE6=Op.34  n°06, The raising of Lazarus
TTITLE7=Op.34  n°07, It cannot be
TTITLE8=Op.34  n°08, Music
TTITLE9=Op.34  n°09, You knew him
TTITLE10=Op.34  n°10, I remember this day
TTITLE11=Op.34  n°11, The herald
TTITLE12=Op.34  n°12, What happiness
TTITLE13=Op.34  n°13, Dissonance
TTITLE14=Op.34  n°14, Vocalise
TTITLE15=From the Gospel of St. John
TTITLE16=Op.38  n°1, At night, in my garden
TTITLE17=Op.38  n°2, To her
TTITLE18=Op.38  n°3, Daises
TTITLE19=Op.38  n°4, The pied piper
TTITLE20=Op.38  n°5, Sleep
TTITLE21=Op.38  n°6, 'Aa-oo'
TTITLE22=A prayer
TTITLE23=All Glory to God
EXTD=YEAR: 2008
EXTT0=
EXTT1=
EXTT2=
EXTT3=
EXTT4=
EXTT5=
EXTT6=
EXTT7=
EXTT8=
EXTT9=
EXTT10=
EXTT11=
EXTT12=
EXTT13=
EXTT14=
EXTT15=
EXTT16=
EXTT17=
EXTT18=
EXTT19=
EXTT20=
EXTT21=
EXTT22=
EXTT23=
PLAYORDER=
